<svg width="1280" height="640" viewBox="0 0 1280 640" fill="none" xmlns="http://www.w3.org/2000/svg">
  <defs>
    <linearGradient id="bg" x1="0" y1="0" x2="1280" y2="640" gradientUnits="userSpaceOnUse">
      <stop stop-color="#0D1117"/>
      <stop offset="1" stop-color="#161B22"/>
    </linearGradient>
    <radialGradient id="glow1" cx="0" cy="0" r="1" gradientUnits="userSpaceOnUse" gradientTransform="translate(520 180) rotate(90) scale(240 360)">
      <stop stop-color="#7C3AED" stop-opacity="0.55"/>
      <stop offset="1" stop-color="#7C3AED" stop-opacity="0"/>
    </radialGradient>
    <radialGradient id="glow2" cx="0" cy="0" r="1" gradientUnits="userSpaceOnUse" gradientTransform="translate(980 420) rotate(90) scale(180 220)">
      <stop stop-color="#22C55E" stop-opacity="0.25"/>
      <stop offset="1" stop-color="#22C55E" stop-opacity="0"/>
    </radialGradient>
    <linearGradient id="cta" x1="0" y1="0" x2="220" y2="0" gradientUnits="userSpaceOnUse">
      <stop stop-color="#A78BFA"/>
      <stop offset="1" stop-color="#C4B5FD"/>
    </linearGradient>
  </defs>

  <rect width="1280" height="640" rx="28" fill="url(#bg)"/>
  <rect x="24" y="24" width="1232" height="592" rx="20" stroke="#30363D"/>

  <g opacity="0.22">
    <path d="M0 80H1280" stroke="#A78BFA" stroke-opacity="0.12"/>
    <path d="M0 160H1280" stroke="#A78BFA" stroke-opacity="0.12"/>
    <path d="M0 240H1280" stroke="#A78BFA" stroke-opacity="0.12"/>
    <path d="M0 320H1280" stroke="#A78BFA" stroke-opacity="0.12"/>
    <path d="M0 400H1280" stroke="#A78BFA" stroke-opacity="0.12"/>
    <path d="M0 480H1280" stroke="#A78BFA" stroke-opacity="0.12"/>
    <path d="M0 560H1280" stroke="#A78BFA" stroke-opacity="0.12"/>
    <path d="M80 0V640" stroke="#A78BFA" stroke-opacity="0.12"/>
    <path d="M160 0V640" stroke="#A78BFA" stroke-opacity="0.12"/>
    <path d="M240 0V640" stroke="#A78BFA" stroke-opacity="0.12"/>
    <path d="M320 0V640" stroke="#A78BFA" stroke-opacity="0.12"/>
    <path d="M400 0V640" stroke="#A78BFA" stroke-opacity="0.12"/>
    <path d="M480 0V640" stroke="#A78BFA" stroke-opacity="0.12"/>
    <path d="M560 0V640" stroke="#A78BFA" stroke-opacity="0.12"/>
    <path d="M640 0V640" stroke="#A78BFA" stroke-opacity="0.12"/>
    <path d="M720 0V640" stroke="#A78BFA" stroke-opacity="0.12"/>
    <path d="M800 0V640" stroke="#A78BFA" stroke-opacity="0.12"/>
    <path d="M880 0V640" stroke="#A78BFA" stroke-opacity="0.12"/>
    <path d="M960 0V640" stroke="#A78BFA" stroke-opacity="0.12"/>
    <path d="M1040 0V640" stroke="#A78BFA" stroke-opacity="0.12"/>
    <path d="M1120 0V640" stroke="#A78BFA" stroke-opacity="0.12"/>
    <path d="M1200 0V640" stroke="#A78BFA" stroke-opacity="0.12"/>
  </g>

  <ellipse cx="520" cy="180" rx="360" ry="240" fill="url(#glow1)"/>
  <ellipse cx="980" cy="420" rx="220" ry="180" fill="url(#glow2)"/>

  <text x="112" y="116" fill="#A78BFA" font-family="'JetBrains Mono', monospace" font-size="20" letter-spacing="3.2">HUMAN · MACHINE · COLLABORATIVE ENGINEERING</text>
  <text x="112" y="240" fill="#E6EDF3" font-family="Georgia, 'Times New Roman', serif" font-size="104" font-weight="600">caskilo</text>
  <text x="112" y="292" fill="#8B949E" font-family="Georgia, 'Times New Roman', serif" font-size="34" font-style="italic">agentic software engineering</text>
  <text x="112" y="372" fill="#C9D1D9" font-family="Arial, Helvetica, sans-serif" font-size="28">A software workshop and potting shed, set in a garden of big ideas.</text>
  <text x="112" y="414" fill="#C9D1D9" font-family="Arial, Helvetica, sans-serif" font-size="28">Enter the site to explore projects, philosophy, and the evolving system.</text>

  <rect x="112" y="476" width="264" height="64" rx="12" fill="url(#cta)"/>
  <text x="152" y="516" fill="#0D1117" font-family="Arial, Helvetica, sans-serif" font-size="24" font-weight="700">Enter Profile →</text>

</svg>
